<svg width="48" height="48" viewBox="0 0 48 48" fill="none" xmlns="http://www.w3.org/2000/svg">
<path fill-rule="evenodd" clip-rule="evenodd" d="M47 40C47 42.762 44.762 45 42 45H6C3.238 45 1 42.762 1 40V11C1 8.79097 2.791 6.99997 5 6.99997H25.171L33.27 4.06597C33.783 3.87897 34.351 4.14397 34.538 4.65497L35.391 6.99997H39C41.209 6.99997 43 8.79097 43 11V13C45.209 13 47 14.791 47 17V40ZM5 8.99997C3.896 8.99997 3 9.89597 3 11C3 12.104 3.896 13 5 13H8.445H8.634C8.647 12.995 8.655 12.984 8.668 12.979L19.65 8.99997H5ZM34.078 9.18097L33.016 6.25697L30.964 6.99997H30.967L25.453 8.99997H25.443L14.404 13H35.466L34.078 9.18097ZM41 11C41 9.89597 40.104 8.99997 39 8.99997H36.117L37.571 13H41V11ZM43 15H5C4.268 15 3.59 14.789 3 14.445V40C3 41.657 4.344 43 6 43H42C43.657 43 45 41.657 45 40V33H41C38.791 33 37 31.209 37 29C37 26.791 38.791 25 41 25H45V17C45 15.896 44.104 15 43 15ZM45 31V27H41C39.896 27 39 27.896 39 29C39 30.104 39.896 31 41 31H45ZM41 28H43V30H41V28Z" fill="#9A9A9A"/>
</svg>
