<svg width="46" height="41" viewBox="0 0 46 41" fill="none" xmlns="http://www.w3.org/2000/svg">
<path fill-rule="evenodd" clip-rule="evenodd" d="M46 35.994C46 38.756 43.762 40.994 41 40.994H5C2.238 40.994 0 38.756 0 35.994V6.99399C0 4.78499 1.791 2.99399 4 2.99399H24.171L32.27 0.0599898C32.783 -0.12701 33.351 0.13799 33.538 0.64899L34.391 2.99399H38C40.209 2.99399 42 4.78499 42 6.99399V8.99399C44.209 8.99399 46 10.785 46 12.994V35.994ZM4 4.99399C2.896 4.99399 2 5.88999 2 6.99399C2 8.09799 2.896 8.99399 4 8.99399H7.445H7.634C7.647 8.98899 7.655 8.97799 7.668 8.97299L18.65 4.99399H4ZM33.078 5.17499L32.016 2.25099L29.964 2.99399H29.967L24.453 4.99399H24.443L13.404 8.99399H34.466L33.078 5.17499ZM40 6.99399C40 5.88999 39.104 4.99399 38 4.99399H35.117L36.571 8.99399H40V6.99399ZM42 10.994H4C3.268 10.994 2.59 10.783 2 10.439V35.994C2 37.651 3.344 38.994 5 38.994H41C42.657 38.994 44 37.651 44 35.994V28.994H40C37.791 28.994 36 27.203 36 24.994C36 22.785 37.791 20.994 40 20.994H44V12.994C44 11.89 43.104 10.994 42 10.994ZM44 26.994V22.994H40C38.896 22.994 38 23.89 38 24.994C38 26.098 38.896 26.994 40 26.994H44ZM40 23.994H42V25.994H40V23.994Z" fill="#0100FC"/>
</svg>
